<svg xmlns="http://www.w3.org/2000/svg" fill="rgb(190, 13, 13)" viewBox="0 0 50 50" width="50px" height="50px"><path d="M 25 2 C 12.309295 2 2 12.309295 2 25 C 2 37.690705 12.309295 48 25 48 C 37.690705 48 48 37.690705 48 25 C 48 12.309295 37.690705 2 25 2 z M 24 4.0253906 L 24 6.0410156 C 22.670266 6.1139287 21.340231 6.3242221 20.007812 6.6875 C 19.474812 6.8335 19.158687 7.3810625 19.304688 7.9140625 L 19.837891 9.8710938 C 17.963891 10.511094 16.215219 11.499391 14.699219 12.775391 L 13.298828 11.310547 C 13.115828 11.118547 12.861656 11.007953 12.597656 11.001953 C 12.340656 10.996953 12.076766 11.094344 11.884766 11.277344 C 10.824151 12.293025 9.9080531 13.402311 9.1347656 14.572266 L 7.3984375 13.558594 C 10.971911 8.0677851 17.032839 4.3510615 24 4.0253906 z M 26 4.0332031 C 32.965163 4.3602984 39.028502 8.0684185 42.601562 13.558594 L 40.867188 14.572266 C 40.092861 13.400689 39.175521 12.292675 38.115234 11.277344 C 37.923234 11.093344 37.676344 10.996 37.402344 11 C 37.136344 11.006 36.883172 11.116594 36.701172 11.308594 L 35.302734 12.775391 C 33.786734 11.499391 32.038063 10.510094 30.164062 9.8710938 L 30.697266 7.9140625 C 30.843266 7.3810625 30.527141 6.8325 29.994141 6.6875 C 28.660941 6.3240092 27.330513 6.1138011 26 6.0410156 L 26 4.0332031 z M 25 14 C 25.969 14 26.907734 14.124375 27.802734 14.359375 L 27.888672 14.404297 L 26.578125 19.208984 L 26.580078 19.208984 C 27.535078 19.468984 28.394656 19.958234 29.097656 20.615234 L 29.144531 20.662109 L 32.599609 17.046875 L 32.667969 17.111328 C 34.032969 18.439328 35.054891 20.119859 35.587891 22.005859 L 30.775391 23.367188 C 30.921391 23.886187 31 24.434 31 25 C 31 25.566 30.922391 26.112813 30.775391 26.632812 L 35.587891 27.994141 C 35.046891 29.910141 33.999609 31.613172 32.599609 32.951172 C 32.577609 32.928172 29.146484 29.338891 29.146484 29.337891 C 28.435484 30.017891 27.556125 30.523062 26.578125 30.789062 L 27.894531 35.613281 C 27.907531 35.610281 27.920594 35.608469 27.933594 35.605469 L 27.894531 35.615234 L 27.894531 35.613281 C 26.972531 35.863281 26.002 36 25 36 C 23.998 36 23.026516 35.866234 22.103516 35.615234 L 22.179688 35.339844 C 22.179688 35.339844 23.421875 30.790063 23.421875 30.789062 C 22.444875 30.523062 21.566469 30.016891 20.855469 29.337891 L 17.400391 32.951172 L 17.398438 32.949219 C 15.999437 31.611219 14.953109 29.909141 14.412109 27.994141 L 14.412109 27.992188 L 19.224609 26.630859 L 19.224609 26.626953 C 19.078609 26.110953 19 25.565 19 25 C 19 24.434 19.077609 23.886188 19.224609 23.367188 C 19.220996 23.366166 14.413109 22.005859 14.412109 22.005859 C 14.953109 20.089859 16.000391 18.386828 17.400391 17.048828 L 17.404297 17.052734 L 20.851562 20.660156 L 20.855469 20.662109 C 21.566469 19.982109 22.444875 19.475937 23.421875 19.210938 L 22.105469 14.386719 C 23.028469 14.134719 23.998 14 25 14 z M 6.3867188 15.283203 L 8.1191406 16.294922 C 7.5519982 17.404394 7.0870494 18.589971 6.734375 19.835938 C 6.662375 20.090937 6.6932656 20.364703 6.8222656 20.595703 C 6.9522656 20.827703 7.1697812 20.997312 7.4257812 21.070312 L 9.3730469 21.621094 C 9.1250469 22.747094 9 23.879 9 25 C 9 26.12 9.1250937 27.252906 9.3710938 28.378906 L 7.4238281 28.929688 C 7.1678281 29.001687 6.9503125 29.172297 6.8203125 29.404297 C 6.6913125 29.635297 6.6604219 29.909063 6.7324219 30.164062 C 7.0852621 31.409866 7.5496811 32.596736 8.1171875 33.707031 L 6.3867188 34.716797 C 4.8684123 31.810814 4 28.509835 4 25 C 4 21.490165 4.8684123 18.189186 6.3867188 15.283203 z M 43.613281 15.283203 C 45.131588 18.189186 46 21.490165 46 25 C 46 28.509835 45.131588 31.810814 43.613281 34.716797 L 41.882812 33.707031 C 42.450318 32.59711 42.914738 31.410614 43.267578 30.164062 C 43.340578 29.910063 43.308688 29.635297 43.179688 29.404297 C 43.049687 29.173297 42.832172 29.002688 42.576172 28.929688 L 40.628906 28.378906 C 40.874906 27.252906 41 26.12 41 25 C 41 23.879 40.874906 22.745141 40.628906 21.619141 L 42.576172 21.070312 C 42.832172 20.998313 43.047734 20.827703 43.177734 20.595703 C 43.306734 20.364703 43.339578 20.090937 43.267578 19.835938 C 42.914233 18.589496 42.451366 17.401859 41.884766 16.292969 L 43.613281 15.283203 z M 40.867188 35.427734 L 42.601562 36.441406 C 39.028089 41.932215 32.967161 45.648938 26 45.974609 L 26 43.964844 C 27.324387 43.890939 28.663172 43.678533 29.994141 43.314453 C 30.526141 43.168453 30.841313 42.618938 30.695312 42.085938 L 30.162109 40.128906 C 32.036109 39.488906 33.784781 38.500609 35.300781 37.224609 L 36.703125 38.691406 C 36.887125 38.883406 37.139297 38.994 37.404297 39 C 37.675297 38.997 37.926188 38.905656 38.117188 38.722656 C 39.177908 37.706874 40.093853 36.597819 40.867188 35.427734 z M 9.1328125 35.429688 C 9.9054391 36.598855 10.821511 37.706282 11.882812 38.722656 C 12.073813 38.906656 12.339703 39.018 12.595703 39 C 12.860703 38.995 13.114875 38.883406 13.296875 38.691406 L 14.697266 37.224609 C 16.213266 38.500609 17.961937 39.488906 19.835938 40.128906 L 19.302734 42.085938 C 19.156734 42.618938 19.471906 43.168453 20.003906 43.314453 C 21.335674 43.678533 22.67558 43.890939 24 43.964844 L 24 45.974609 C 17.032839 45.648938 10.971911 41.932215 7.3984375 36.441406 L 9.1328125 35.429688 z"/></svg>